<?xml version="1.0" standalone="no"?>
<!DOCTYPE svg PUBLIC "-//W3C//DTD SVG 20010904//EN"
 "http://www.w3.org/TR/2001/REC-SVG-20010904/DTD/svg10.dtd">
<svg version="1.0" xmlns="http://www.w3.org/2000/svg"
 width="512.000000pt" height="512.000000pt" viewBox="0 0 512.000000 512.000000"
 preserveAspectRatio="xMidYMid meet">

<g transform="translate(0.000000,512.000000) scale(0.100000,-0.100000)"
fill="#000000" stroke="none">
<path d="M2265 4950 l-290 -169 -347 -1 -346 0 -173 -299 -172 -298 -298 -172
-299 -173 0 -345 0 -345 -170 -294 -170 -294 170 -294 170 -294 0 -345 0 -345
299 -173 298 -172 172 -298 173 -299 344 0 345 0 295 -170 294 -170 294 170
294 170 345 0 345 0 172 299 173 298 298 173 299 172 0 345 0 345 170 294 170
294 -170 294 -170 294 0 345 0 345 -299 173 -298 172 -172 298 -173 299 -345
0 -345 0 -294 170 c-161 94 -295 170 -296 169 -2 0 -133 -76 -293 -169z m1325
-1286 c48 -14 70 -32 187 -147 82 -80 141 -147 154 -174 29 -60 29 -146 1
-204 -16 -32 -249 -271 -834 -856 -790 -789 -815 -812 -867 -827 -68 -20 -84
-20 -152 0 -52 15 -72 34 -462 422 -283 283 -414 420 -429 451 -24 50 -28 127
-9 186 16 48 253 295 316 328 57 30 154 29 215 -2 27 -14 126 -104 248 -225
l203 -200 612 611 c336 336 623 617 637 624 60 30 109 34 180 13z"/>
</g>
</svg>
