<?xml version="1.0" standalone="no"?>
<!DOCTYPE svg PUBLIC "-//W3C//DTD SVG 20010904//EN"
 "http://www.w3.org/TR/2001/REC-SVG-20010904/DTD/svg10.dtd">
<svg version="1.0" xmlns="http://www.w3.org/2000/svg"
 width="512.000000pt" height="512.000000pt" viewBox="0 0 512.000000 512.000000"
 preserveAspectRatio="xMidYMid meet">

<g transform="translate(0.000000,512.000000) scale(0.100000,-0.100000)"
fill="#000000" stroke="none">
<path d="M2330 5110 c-494 -48 -950 -230 -1350 -538 -195 -150 -448 -432 -594
-662 -63 -99 -186 -351 -230 -471 -51 -139 -103 -344 -128 -504 -31 -200 -31
-550 0 -750 43 -273 114 -500 237 -750 132 -269 269 -460 489 -681 221 -220
412 -357 681 -489 247 -121 469 -192 745 -237 195 -31 565 -31 760 0 276 45
498 116 745 237 269 132 460 269 681 489 220 221 357 412 489 681 123 250 194
477 237 750 31 200 31 550 0 750 -43 273 -114 500 -237 750 -132 269 -269 460
-489 681 -221 220 -412 357 -681 489 -246 121 -474 193 -740 235 -147 23 -475
34 -615 20z m-290 -2595 c319 -319 513 -505 525 -505 12 0 206 186 525 505
322 321 513 505 525 505 30 0 145 -119 145 -150 0 -20 -121 -146 -583 -607
-509 -510 -586 -583 -612 -583 -26 0 -103 74 -617 588 -348 348 -588 595 -588
605 0 30 119 147 149 147 21 0 125 -100 531 -505z"/>
</g>
</svg>
