<?xml version="1.0" standalone="no"?>
<!DOCTYPE svg PUBLIC "-//W3C//DTD SVG 20010904//EN"
 "http://www.w3.org/TR/2001/REC-SVG-20010904/DTD/svg10.dtd">
<svg version="1.0" xmlns="http://www.w3.org/2000/svg"
 width="512.000000pt" height="512.000000pt" viewBox="0 0 512.000000 512.000000"
 preserveAspectRatio="xMidYMid meet">

<g transform="translate(0.000000,512.000000) scale(0.100000,-0.100000)"
fill="#000000" stroke="none">
<path d="M2380 5114 c-19 -2 -78 -9 -130 -14 -330 -36 -695 -160 -990 -336
-375 -224 -680 -529 -904 -904 -175 -292 -291 -632 -338 -990 -16 -123 -16
-497 0 -620 82 -623 356 -1150 820 -1581 256 -239 575 -425 922 -539 274 -91
491 -124 800 -124 228 0 329 9 530 50 689 141 1304 583 1674 1204 175 292 291
632 338 990 16 123 16 497 0 620 -47 358 -163 698 -338 990 -224 375 -529 680
-904 904 -289 173 -634 291 -980 336 -88 12 -438 21 -500 14z m455 -1279 c148
-300 274 -545 280 -545 13 0 1177 -169 1189 -173 6 -2 -505 -507 -828 -817
l-38 -38 102 -596 c56 -328 100 -599 97 -602 -2 -3 -245 121 -538 275 -294
155 -536 281 -539 281 -3 0 -245 -126 -539 -281 -293 -154 -536 -278 -538
-275 -3 3 41 274 97 602 l102 596 -38 38 c-323 310 -834 815 -828 817 12 4
1176 173 1189 173 6 0 132 245 280 545 148 300 271 545 275 545 4 0 127 -245
275 -545z"/>
<path d="M2385 3360 c-147 -295 -173 -340 -195 -344 -37 -8 -718 -106 -732
-106 -7 0 113 -123 267 -273 l279 -273 -64 -372 c-35 -205 -61 -375 -58 -378
4 -3 157 74 342 171 l336 177 336 -177 c185 -97 338 -174 342 -171 3 3 -23
173 -58 378 l-64 372 279 273 c154 150 274 273 267 273 -14 0 -695 98 -732
106 -22 4 -48 49 -195 344 -93 187 -172 340 -175 340 -3 0 -82 -153 -175 -340z"/>
</g>
</svg>
